{
  "accessors": [
    {
      "bufferView": 2,
      "componentType": 5126,
      "count": 2956,
      "max": [
        25.0,
        8.25,
        75.0
      ],
      "min": [
        -285.0,
        -10.0,
        -125.0
      ],
      "type": "VEC3"
    },
    {
      "bufferView": 2,
      "byteOffset": 35472,
      "componentType": 5126,
      "count": 2956,
      "max": [
        1.0,
        1.0,
        1.0
      ],
      "min": [
        -1.0,
        -1.0,
        -1.0
      ],
      "type": "VEC3"
    },
    {
      "bufferView": 1,
      "componentType": 5126,
      "count": 2956,
      "max": [
        16.5,
        0.824999988079071
      ],
      "min": [
        -16.5,
        0.0
      ],
      "type": "VEC2"
    },
    {
      "bufferView": 0,
      "componentType": 5125,
      "count": 8676,
      "type": "SCALAR"
    },
    {
      "bufferView": 2,
      "byteOffset": 70944,
      "componentType": 5126,
      "count": 21270,
      "max": [
        21.500030517578125,
        10.0,
        71.50005340576172
      ],
      "min": [
        -281.5,
        -6.218934872279092e-14,
        -121.5
      ],
      "type": "VEC3"
    },
    {
      "bufferView": 2,
      "byteOffset": 326184,
      "componentType": 5126,
      "count": 21270,
      "max": [
        1.0,
        1.0,
        1.0
      ],
      "min": [
        -1.0,
        -1.0,
        -1.0
      ],
      "type": "VEC3"
    },
    {
      "bufferView": 1,
      "byteOffset": 23648,
      "componentType": 5126,
      "count": 21270,
      "max": [
        16.5,
        7.150003910064697
      ],
      "min": [
        -16.5,
        -7.150003910064697
      ],
      "type": "VEC2"
    },
    {
      "bufferView": 0,
      "byteOffset": 34704,
      "componentType": 5125,
      "count": 39228,
      "type": "SCALAR"
    },
    {
      "bufferView": 2,
      "byteOffset": 581424,
      "componentType": 5126,
      "count": 4168,
      "max": [
        21.000030517578125,
        8.25,
        71.00005340576172
      ],
      "min": [
        -281.0,
        3.5,
        -121.0
      ],
      "type": "VEC3"
    },
    {
      "bufferView": 2,
      "byteOffset": 631440,
      "componentType": 5126,
      "count": 4168,
      "max": [
        1.0,
        0.0,
        1.0
      ],
      "min": [
        -1.0,
        0.0,
        -1.0
      ],
      "type": "VEC3"
    },
    {
      "bufferView": 1,
      "byteOffset": 193808,
      "componentType": 5126,
      "count": 4168,
      "max": [
        16.5,
        0.824999988079071
      ],
      "min": [
        -16.5,
        0.3499999940395355
      ],
      "type": "VEC2"
    },
    {
      "bufferView": 0,
      "byteOffset": 191616,
      "componentType": 5125,
      "count": 7176,
      "type": "SCALAR"
    }
  ],
  "asset": {
    "extras": {
      "author": "TheCrafter (https://sketchfab.com/thecrafter)",
      "license": "CC-BY-4.0 (http://creativecommons.org/licenses/by/4.0/)",
      "source": "https://sketchfab.com/3d-models/low-poly-dungeon-room-2-c010ce0fbe554dc7869742e8f3e32c06",
      "title": "Low Poly Dungeon Room #2"
    },
    "generator": "Sketchfab-12.66.0",
    "version": "2.0"
  },
  "bufferViews": [
    {
      "buffer": 0,
      "byteLength": 220320,
      "name": "floatBufferViews",
      "target": 34963
    },
    {
      "buffer": 0,
      "byteLength": 227152,
      "byteOffset": 220320,
      "byteStride": 8,
      "name": "floatBufferViews",
      "target": 34962
    },
    {
      "buffer": 0,
      "byteLength": 681456,
      "byteOffset": 447472,
      "byteStride": 12,
      "name": "floatBufferViews",
      "target": 34962
    }
  ],
  "buffers": [
    {
      "byteLength": 1128928,
      "uri": "scene.bin"
    }
  ],
  "images": [
    {
      "uri": "textures/stoneLight_baseColor.png"
    },
    {
      "uri": "textures/stoneDark_baseColor.png"
    }
  ],
  "materials": [
    {
      "doubleSided": true,
      "name": "defaultMat",
      "pbrMetallicRoughness": {
        "baseColorFactor": [
          0.069,
          0.069,
          0.069,
          1.0
        ],
        "metallicFactor": 0.0,
        "roughnessFactor": 0.9577051494623774
      }
    },
    {
      "doubleSided": true,
      "name": "stoneLight",
      "pbrMetallicRoughness": {
        "baseColorTexture": {
          "index": 0
        },
        "metallicFactor": 0.0,
        "roughnessFactor": 0.9577051494623774
      }
    },
    {
      "doubleSided": true,
      "name": "stoneDark",
      "pbrMetallicRoughness": {
        "baseColorTexture": {
          "index": 1
        },
        "metallicFactor": 0.0,
        "roughnessFactor": 0.9577051494623774
      }
    }
  ],
  "meshes": [
    {
      "name": "mergedBlocks__defaultMat_0",
      "primitives": [
        {
          "attributes": {
            "NORMAL": 1,
            "POSITION": 0,
            "TEXCOORD_0": 2
          },
          "indices": 3,
          "material": 0,
          "mode": 4
        }
      ]
    },
    {
      "name": "mergedBlocks_stoneLight_0",
      "primitives": [
        {
          "attributes": {
            "NORMAL": 5,
            "POSITION": 4,
            "TEXCOORD_0": 6
          },
          "indices": 7,
          "material": 1,
          "mode": 4
        }
      ]
    },
    {
      "name": "mergedBlocks_stoneDark_0",
      "primitives": [
        {
          "attributes": {
            "NORMAL": 9,
            "POSITION": 8,
            "TEXCOORD_0": 10
          },
          "indices": 11,
          "material": 2,
          "mode": 4
        }
      ]
    }
  ],
  "nodes": [
    {
      "children": [
        1
      ],
      "matrix": [
        1.0,
        0.0,
        0.0,
        0.0,
        0.0,
        2.220446049250313e-16,
        -1.0,
        0.0,
        0.0,
        1.0,
        2.220446049250313e-16,
        0.0,
        0.0,
        0.0,
        0.0,
        1.0
      ],
      "name": "Sketchfab_model"
    },
    {
      "children": [
        2
      ],
      "matrix": [
        1.0,
        0.0,
        0.0,
        0.0,
        0.0,
        0.0,
        1.0,
        0.0,
        0.0,
        -1.0,
        0.0,
        0.0,
        0.0,
        0.0,
        0.0,
        1.0
      ],
      "name": "dungeon_room2.fbx"
    },
    {
      "children": [
        3
      ],
      "name": "RootNode"
    },
    {
      "children": [
        4,
        5,
        6
      ],
      "name": "mergedBlocks"
    },
    {
      "mesh": 0,
      "name": "mergedBlocks__defaultMat_0"
    },
    {
      "mesh": 1,
      "name": "mergedBlocks_stoneLight_0"
    },
    {
      "mesh": 2,
      "name": "mergedBlocks_stoneDark_0"
    }
  ],
  "samplers": [
    {
      "magFilter": 9729,
      "minFilter": 9987,
      "wrapS": 10497,
      "wrapT": 10497
    }
  ],
  "scene": 0,
  "scenes": [
    {
      "name": "Sketchfab_Scene",
      "nodes": [
        0
      ]
    }
  ],
  "textures": [
    {
      "sampler": 0,
      "source": 0
    },
    {
      "sampler": 0,
      "source": 1
    }
  ]
}
